<svg xmlns="http://www.w3.org/2000/svg" width="85" height="65" viewBox="0 0 85 65" fill="none">
  <path d="M78.2717 37.6411H23.7006C23.1481 37.6399 22.6185 37.223 22.2279 36.4819C21.8372 35.7407 21.6175 34.7359 21.6169 33.6877V3.95338C21.6175 2.90525 21.8372 1.9004 22.2279 1.15926C22.6185 0.41812 23.1481 0.00121476 23.7006 0H82.8904C83.4428 0.00121553 83.9725 0.41812 84.3631 1.15926C84.7537 1.9004 84.9735 2.90525 84.9741 3.95338V24.9249C84.9721 28.2963 84.2653 31.5285 83.0088 33.9124C81.7523 36.2964 80.0487 37.6373 78.2717 37.6411Z" fill="#F2F2F2"/>
  <path d="M59.4478 10.575H34.5281C34.3856 10.575 34.2489 10.4675 34.1481 10.2763C34.0473 10.0851 33.9907 9.82579 33.9907 9.55538C33.9907 9.28497 34.0473 9.02563 34.1481 8.83442C34.2489 8.64322 34.3856 8.5358 34.5281 8.5358H59.4478C59.5904 8.5358 59.727 8.64322 59.8278 8.83442C59.9286 9.02563 59.9852 9.28497 59.9852 9.55538C59.9852 9.82579 59.9286 10.0851 59.8278 10.2763C59.727 10.4675 59.5904 10.575 59.4478 10.575Z" fill="white"/>
  <path d="M72.0626 14.7451H34.5281C34.3856 14.7451 34.2489 14.6376 34.1481 14.4464C34.0473 14.2552 33.9907 13.9959 33.9907 13.7255C33.9907 13.4551 34.0473 13.1957 34.1481 13.0045C34.2489 12.8133 34.3856 12.7059 34.5281 12.7059H72.0626C72.2052 12.7059 72.3419 12.8133 72.4426 13.0045C72.5434 13.1957 72.6 13.4551 72.6 13.7255C72.6 13.9959 72.5434 14.2552 72.4426 14.4464C72.3419 14.6376 72.2052 14.7451 72.0626 14.7451Z" fill="white"/>
  <path d="M72.0626 19.5318H34.5281C34.3856 19.5318 34.2489 19.4244 34.1481 19.2332C34.0473 19.042 33.9907 18.7826 33.9907 18.5122C33.9907 18.2418 34.0473 17.9825 34.1481 17.7913C34.2489 17.6001 34.3856 17.4926 34.5281 17.4926H72.0626C72.2052 17.4926 72.3419 17.6001 72.4426 17.7913C72.5434 17.9825 72.6 18.2418 72.6 18.5122C72.6 18.7826 72.5434 19.042 72.4426 19.2332C72.3419 19.4244 72.2052 19.5318 72.0626 19.5318Z" fill="white"/>
  <path d="M72.0626 24.3185H34.5281C34.3856 24.3185 34.2489 24.2111 34.1481 24.0199C34.0473 23.8287 33.9907 23.5694 33.9907 23.299C33.9907 23.0286 34.0473 22.7692 34.1481 22.578C34.2489 22.3868 34.3856 22.2794 34.5281 22.2794H72.0626C72.2052 22.2794 72.3419 22.3868 72.4426 22.578C72.5434 22.7692 72.6 23.0286 72.6 23.299C72.6 23.5694 72.5434 23.8287 72.4426 24.0199C72.3419 24.2111 72.2052 24.3185 72.0626 24.3185Z" fill="white"/>
  <path d="M72.0626 29.1053H34.5281C34.4574 29.1055 34.3875 29.0793 34.3222 29.0282C34.2569 28.977 34.1975 28.902 34.1475 28.8073C34.0975 28.7126 34.0578 28.6001 34.0308 28.4763C34.0037 28.3525 33.9898 28.2197 33.9898 28.0857C33.9898 27.9517 34.0037 27.819 34.0308 27.6951C34.0578 27.5713 34.0975 27.4589 34.1475 27.3642C34.1975 27.2695 34.2569 27.1944 34.3222 27.1432C34.3875 27.0921 34.4574 27.0659 34.5281 27.0661H72.0626C72.205 27.0666 72.3415 27.1742 72.4421 27.3654C72.5426 27.5565 72.5991 27.8156 72.5991 28.0857C72.5991 28.3558 72.5426 28.6149 72.4421 28.8061C72.3415 28.9972 72.205 29.1048 72.0626 29.1053Z" fill="white"/>
  <path d="M64.0849 65H2.08373C1.53128 64.9988 1.00165 64.5819 0.611015 63.8407C0.22038 63.0996 0.000640268 62.0948 0 61.0466V25.9769C0.000640268 24.9288 0.22038 23.9239 0.611015 23.1828C1.00165 22.4417 1.53128 22.0247 2.08373 22.0235H64.0849C64.6373 22.0247 65.167 22.4417 65.5576 23.1828C65.9482 23.9239 66.168 24.9288 66.1686 25.9769V61.0466C66.168 62.0947 65.9482 63.0996 65.5576 63.8407C65.167 64.5819 64.6373 64.9988 64.0849 65Z" fill="#E6E6E6"/>
  <path d="M58.0607 62.3334H3.48956C2.93712 62.3322 2.40749 61.9153 2.01685 61.1741C1.62622 60.433 1.40648 59.4281 1.40584 58.38V28.6456C1.40648 27.5975 1.62622 26.5927 2.01685 25.8515C2.40749 25.1104 2.93712 24.6935 3.48956 24.6923H62.6794C63.2318 24.6935 63.7615 25.1104 64.1521 25.8515C64.5427 26.5927 64.7625 27.5975 64.7631 28.6456V49.6171C64.7611 52.9885 64.0543 56.2207 62.7978 58.6047C61.5413 60.9886 59.8377 62.3296 58.0607 62.3334Z" fill="white"/>
  <path d="M51.8517 39.4374H14.3171C14.1746 39.4374 14.0379 39.3299 13.9371 39.1387C13.8363 38.9475 13.7797 38.6882 13.7797 38.4178C13.7797 38.1474 13.8363 37.888 13.9371 37.6968C14.0379 37.5056 14.1746 37.3982 14.3171 37.3982H51.8517C51.9942 37.3982 52.1309 37.5056 52.2317 37.6968C52.3324 37.888 52.3891 38.1474 52.3891 38.4178C52.3891 38.6882 52.3324 38.9475 52.2317 39.1387C52.1309 39.3299 51.9942 39.4374 51.8517 39.4374Z" fill="#E6E6E6"/>
  <path d="M51.8517 44.2241H14.3171C14.1746 44.2241 14.0379 44.1167 13.9371 43.9255C13.8363 43.7343 13.7797 43.4749 13.7797 43.2045C13.7797 42.9341 13.8363 42.6748 13.9371 42.4836C14.0379 42.2924 14.1746 42.1849 14.3171 42.1849H51.8517C51.9942 42.1849 52.1309 42.2924 52.2317 42.4836C52.3324 42.6748 52.3891 42.9341 52.3891 43.2045C52.3891 43.4749 52.3324 43.7343 52.2317 43.9255C52.1309 44.1167 51.9942 44.2241 51.8517 44.2241Z" fill="#E6E6E6"/>
  <path d="M51.8517 49.0108H14.3171C14.1746 49.0108 14.0379 48.9034 13.9371 48.7122C13.8363 48.521 13.7797 48.2617 13.7797 47.9913C13.7797 47.7209 13.8363 47.4615 13.9371 47.2703C14.0379 47.0791 14.1746 46.9717 14.3171 46.9717H51.8517C51.9942 46.9717 52.1309 47.0791 52.2317 47.2703C52.3324 47.4615 52.3891 47.7209 52.3891 47.9913C52.3891 48.2617 52.3324 48.521 52.2317 48.7122C52.1309 48.9034 51.9942 49.0108 51.8517 49.0108Z" fill="#E6E6E6"/>
  <path d="M51.8516 53.7976H14.3171C14.2464 53.7978 14.1765 53.7716 14.1112 53.7204C14.0459 53.6693 13.9865 53.5942 13.9365 53.4995C13.8865 53.4048 13.8468 53.2924 13.8198 53.1685C13.7927 53.0447 13.7788 52.912 13.7788 52.778C13.7788 52.6439 13.7927 52.5112 13.8198 52.3874C13.8468 52.2636 13.8865 52.1511 13.9365 52.0564C13.9865 51.9617 14.0459 51.8867 14.1112 51.8355C14.1765 51.7844 14.2464 51.7582 14.3171 51.7584H51.8516C51.994 51.7588 52.1305 51.8665 52.2311 52.0576C52.3316 52.2488 52.3881 52.5079 52.3881 52.778C52.3881 53.0481 52.3316 53.3072 52.2311 53.4983C52.1305 53.6895 51.994 53.7971 51.8516 53.7976Z" fill="#E6E6E6"/>
  <path d="M47.0462 33.9939H22.1264C21.9839 33.9939 21.8472 33.8865 21.7464 33.6952C21.6456 33.504 21.589 33.2447 21.589 32.9743C21.589 32.7039 21.6456 32.4446 21.7464 32.2533C21.8472 32.0621 21.9839 31.9547 22.1264 31.9547H47.0462C47.1887 31.9547 47.3254 32.0621 47.4261 32.2533C47.5269 32.4446 47.5835 32.7039 47.5835 32.9743C47.5835 33.2447 47.5269 33.504 47.4261 33.6952C47.3254 33.8865 47.1887 33.9939 47.0462 33.9939Z" fill="#6C63FF"/>
</svg>