<svg xmlns="http://www.w3.org/2000/svg" width="85" height="64" viewBox="0 0 85 64" fill="none">
  <path d="M9.74868 37.9077H5.18119C3.40979 37.9077 1.97379 39.517 1.97379 41.5022V60.4055C1.97379 62.3907 3.40979 64 5.18119 64H9.74868C11.5201 64 12.9561 62.3907 12.9561 60.4055V41.5022C12.9561 39.517 11.5201 37.9077 9.74868 37.9077Z" fill="#3F3D56"/>
  <path d="M81.7926 37.9077H77.2251C75.4537 37.9077 74.0177 39.517 74.0177 41.5022V60.4055C74.0177 62.3907 75.4537 64 77.2251 64H81.7926C83.564 64 85 62.3907 85 60.4055V41.5022C85 39.517 83.564 37.9077 81.7926 37.9077Z" fill="#3F3D56"/>
  <path d="M78.8976 57.6H9.14254C6.71742 57.6 4.64231 55.6591 4.20849 52.9853L1.54088 36.5428C0.38077 29.3921 2.78454 22.1067 7.81533 17.5224L13.0754 4.83942C14.2947 1.89952 16.9517 0 19.8445 0H59.1378C61.2266 0 63.2336 0.990385 64.6441 2.71731L74.3095 14.5522C81.3808 19.8923 85.3924 29.1281 84.7806 38.6601L83.8996 52.3832C83.7118 55.3084 81.5147 57.6 78.8976 57.6Z" fill="#DFDFDF"/>
  <path d="M66.9929 16.3692H14.2921C13.3768 16.3692 12.5323 15.856 12.0328 14.9966C11.5334 14.137 11.4563 13.0637 11.8265 12.1257L14.6043 5.0875C15.0271 4.01634 15.9753 3.31033 17.02 3.28894L61.9459 3.35024C62.8013 3.34399 63.6181 3.77548 64.1368 4.53485L69.1339 11.5118C69.7619 12.4315 69.8677 13.6476 69.4101 14.6861C68.9524 15.7243 68.0262 16.3692 66.9929 16.3692Z" fill="white"/>
  <path d="M74.8963 34.9539C77.4437 34.9539 79.5089 32.6395 79.5089 29.7846C79.5089 26.9297 77.4437 24.6154 74.8963 24.6154C72.3488 24.6154 70.2837 26.9297 70.2837 29.7846C70.2837 32.6395 72.3488 34.9539 74.8963 34.9539Z" fill="white"/>
  <path d="M14.274 34.9539C16.8214 34.9539 18.8865 32.6395 18.8865 29.7846C18.8865 26.9297 16.8214 24.6154 14.274 24.6154C11.7265 24.6154 9.66141 26.9297 9.66141 29.7846C9.66141 32.6395 11.7265 34.9539 14.274 34.9539Z" fill="white"/>
  <path d="M70.3936 49.1077H20.0946V48.9846C20.0946 46.0663 22.213 43.6923 24.817 43.6923H65.6712C68.2751 43.6923 70.3936 46.0663 70.3936 48.9846V49.1077Z" fill="#3F3D56"/>
  <path d="M8.5546 18.6065C8.2824 18.6065 8.00966 18.5094 7.78069 18.3132L5.93906 16.7353C5.7562 16.5786 5.52867 16.4923 5.29835 16.4923H1.27657C0.816415 16.4923 0.404044 16.226 0.173512 15.7796C-0.0570205 15.3334 -0.0578795 14.8 0.171204 14.3529L1.15302 12.436C1.34912 12.0531 1.69934 11.7897 2.08995 11.7312L7.12175 10.9793C7.74889 10.886 8.33275 11.3108 8.51223 11.9897L9.77686 16.7728C9.91612 17.2995 9.7701 17.8764 9.40481 18.243C9.16409 18.4844 8.85972 18.6065 8.5546 18.6065Z" fill="#DFDFDF"/>
  <path d="M73.8066 17.6219C73.5015 17.6219 73.1972 17.4997 72.9564 17.2584C72.5912 16.8918 72.4452 16.3149 72.5844 15.7882L73.849 11.005C74.0285 10.3257 74.6133 9.8995 75.2395 9.99494L80.2713 10.7466C80.6619 10.805 81.0121 11.0685 81.2082 11.4514L82.19 13.3683C82.4191 13.8154 82.4182 14.3488 82.1877 14.7949C81.9572 15.2413 81.5448 15.5077 81.0847 15.5077H77.0629C76.8326 15.5077 76.605 15.594 76.4222 15.7507L74.5805 17.3286C74.3516 17.5247 74.0788 17.6219 73.8066 17.6219Z" fill="#DFDFDF"/>
</svg>